<?xml version="1.0" encoding="utf-8" ?>
<svg xmlns="http://www.w3.org/2000/svg" xmlns:xlink="http://www.w3.org/1999/xlink" width="588" height="489">
	<path fill="#272F4E" d="M384.518 289.098C384.733 289.135 384.85 289.307 385.009 289.45C384.916 289.778 384.918 290.081 384.902 290.42C385.01 290.577 385.09 290.667 385.125 290.874C385.427 292.637 385.087 294.963 385.078 296.788L385.072 311.676C385.072 319.379 385.497 327.312 384.983 334.983C383.779 352.92 377.945 371.042 365.321 384.275C361.719 388.052 357.991 391.976 353.9 395.217C343.092 403.779 328.508 409.479 314.778 410.759C308.944 411.303 302.948 411.022 297.088 411.019C285.18 411.012 273.252 410.856 261.347 411.13L261.094 410.903L261.087 410.413C267.302 404.363 271.95 396.727 277.845 390.351C278.865 389.248 280.118 388.538 281.586 388.205C284.817 387.474 288.802 387.96 292.117 388.004C298.08 388.085 304.121 388.225 310.08 387.966C323.813 387.368 338.733 379.411 347.916 369.353C356.581 359.864 361 347.565 361.869 334.86C362.159 330.616 361.993 326.275 361.987 322.022C361.979 315.863 362.112 309.664 361.807 303.512C369.63 299.282 377.346 294.36 384.518 289.098Z"/>
	<path fill="#272F4E" d="M75.7158 7.0185Q76.0269 7.00549 76.3382 6.99642C90.5401 6.55936 104.898 6.99632 119.116 6.99678L206.007 6.99729L271.337 7.00648L295.403 6.98456C307.055 6.95986 317.805 6.78791 329.132 9.9876C341.935 13.6045 353.228 20.6089 362.813 29.7699C365.421 32.2624 367.633 35.1166 370.27 37.5862C365.341 39.3606 354.254 46.3878 350.616 50.0511C348.292 48.097 346.255 45.7826 343.93 43.8109C337.186 38.0922 328.73 33.5454 320.082 31.5612C309.095 29.0401 296.701 30.0605 285.463 30.0741L240.846 30.0895L132.681 30.0843C115.346 30.0818 97.9915 29.8752 80.6597 30.0537Q79.2439 30.0721 77.8308 30.1599Q76.4176 30.2476 75.0104 30.4046Q73.6033 30.5615 72.2055 30.7872Q70.8077 31.0129 69.4226 31.3069Q68.0376 31.6009 66.6686 31.9624Q65.2997 32.3239 63.9501 32.7521Q62.6004 33.1803 61.2734 33.6741Q59.9464 34.1679 58.6452 34.7262Q57.344 35.2845 56.0718 35.9059Q54.7995 36.5273 53.5592 37.2103Q52.3189 37.8933 51.1136 38.6363Q49.9082 39.3793 48.7408 40.1805Q47.5733 40.9817 46.4465 41.8391Q45.3197 42.6966 44.2363 43.6082Q43.1528 44.5199 42.1154 45.4836Q41.078 46.4472 40.089 47.4606Q38.7154 48.8704 37.4515 50.3793Q36.1875 51.8882 35.0404 53.4878Q33.8933 55.0874 32.8695 56.7685Q31.8457 58.4497 30.951 60.203Q30.0563 61.9563 29.2957 63.7718Q28.5351 65.5873 27.9129 67.4548Q27.2907 69.3223 26.8104 71.2312Q26.3301 73.1401 25.9945 75.0797C24.1776 85.7444 25.0217 97.6859 25.0241 108.534L25.0429 162.475L25.0301 278.283C25.0241 297.277 24.6809 316.33 25.0076 335.317C25.2622 350.116 32.4391 363.281 42.8863 373.372C58.7207 388.666 78.4726 389.222 99.0869 388.833C98.9997 391.631 99.0669 394.45 99.0684 397.25L99.0722 448.307C101.055 447.005 102.854 445.318 104.69 443.816L117.358 433.254C126.342 425.703 135.541 418.388 144.56 410.869C152.519 404.233 160.36 397.298 168.548 390.956C169.69 390.072 171.295 388.664 172.722 388.302C176.285 387.398 186.94 388.011 191.307 388.014C206.185 388.024 221.096 387.831 235.968 388.241C238.509 395.771 240.34 403.47 242.427 411.128C234.745 410.602 226.761 411.009 219.047 411.006C206.241 411.001 193.408 410.827 180.605 411.151C176.172 415.335 171.096 418.949 166.381 422.824L134.371 449.027L110.753 468.339C104.842 473.271 97.7068 479.723 91.3568 483.789C89.7929 484.79 87.8603 485.159 86.0206 485.179C83.2558 485.208 80.6095 484.331 78.6426 482.332C76.9316 480.593 76.5306 478.502 76.2414 476.157C75.4761 469.952 76.0256 461.262 76.0294 454.809L76.0877 411.071C71.5412 411.164 67.0691 410.299 62.6714 409.209C48.7793 405.766 36.6414 399.219 26.0636 389.585C22.6034 386.433 19.7179 382.775 16.945 379.022C5.46182 363.48 2.04583 347.63 1.23657 328.581C1.03844 323.917 1.05195 318.79 1.31853 314.135C1.46977 311.494 1.83759 308.869 1.94481 306.224C2.14904 301.187 2.0079 296.096 2.00813 291.052L2.00745 181.882L2.00301 112.279L1.98078 91.81C1.97479 84.6931 1.79667 77.8142 3.14119 70.7863C6.03283 55.6716 13.2304 42.3615 23.5651 31.0494C36.3865 17.0155 56.7931 7.85574 75.7158 7.0185Z"/>
	<path fill="#272F4E" d="M193.966 61.5628C194.503 61.4344 195.119 61.3943 195.673 61.3916Q197.432 61.3895 199.191 61.4307Q200.949 61.4719 202.706 61.5563Q204.463 61.6407 206.217 61.7683Q207.972 61.8959 209.723 62.0666Q211.473 62.2373 213.219 62.451Q214.965 62.6647 216.705 62.9213Q218.446 63.1779 220.179 63.4772Q221.912 63.7765 223.638 64.1184Q225.363 64.4602 227.08 64.8444Q228.797 65.2286 230.503 65.6548Q232.21 66.0811 233.905 66.5492Q235.601 67.0173 237.285 67.527Q238.968 68.0367 240.639 68.5876Q242.309 69.1385 243.966 69.7304Q245.622 70.3222 247.264 70.9546Q248.905 71.587 250.53 72.2596Q252.156 72.9321 253.764 73.6445Q255.372 74.3568 256.963 75.1085Q258.553 75.8602 260.125 76.6507Q261.696 77.4413 263.247 78.2703Q264.799 79.0993 266.33 79.9661Q267.86 80.833 269.369 81.7373Q270.878 82.6415 272.364 83.5826Q273.85 84.5237 275.313 85.5011Q276.775 86.4784 278.213 87.4915Q279.652 88.5045 281.064 89.5526Q282.477 90.6007 283.864 91.6832Q285.25 92.7657 286.61 93.882Q287.969 94.9983 289.301 96.1477Q290.633 97.2971 291.936 98.4788Q293.239 99.6606 294.512 100.874Q295.786 102.088 297.029 103.332C295.398 106.129 293.484 108.757 291.918 111.597C290.451 114.256 289.462 117.795 287.563 120.128C284.917 123.382 270.49 131.145 265.838 134.502C266.403 135.506 266.828 136.573 267.213 137.658C267.722 139.089 268.313 140.972 268.032 142.496C267.529 145.222 262.927 151.703 261.347 154.606C259.808 157.435 258.399 160.354 257.016 163.262C254.608 155.68 253.229 147.988 250.502 140.394C235.377 145.386 219.983 149.073 204.029 150.041L204.047 188.041C218.41 187.638 232.95 187.779 247.32 187.931C246.001 193.371 244.356 198.732 242.951 204.152C237.729 203.789 208.208 203.444 204.492 204.702C203.372 208.102 204.05 236.831 204.08 243.17C209.206 243.117 232.228 245.052 235.624 248.018C236.855 251.201 235.928 259.744 236.031 263.571C225.719 260.682 214.714 259.25 204.021 259.024C204.433 277.836 203.928 296.702 204.141 315.525C209.04 313.022 213.109 309.823 217.293 306.301C224.267 300.578 232.215 290.731 236.969 282.993C237.094 288.686 238.328 294.775 239.518 300.339C239.986 302.522 240.717 304.802 240.974 307.003C241.032 307.501 240.893 307.946 240.761 308.423C240.645 308.84 240.515 309.168 240.518 309.607C240.52 310.006 241.601 310.955 241.917 311.287C239.826 316.14 236.203 321.522 232.821 325.577C231.831 326.763 230.696 327.929 229.313 328.649C224.457 331.179 214.122 332.185 208.652 332.7C204.459 333.095 200.258 333.056 196.051 333.07C191.526 333.086 186.971 333.212 182.461 332.813C157.207 330.581 131.224 320.311 111.707 303.996C84.4108 281.176 66.0741 247.523 63.0619 211.963C62.6535 207.141 62.0904 202.194 62.1041 197.357C62.1129 194.244 62.5308 191.12 62.7613 188.017C64.923 158.917 75.36 130.49 94.437 108.117Q95.3716 107.006 96.3308 105.916Q97.29 104.826 98.2733 103.758Q99.2566 102.689 100.263 101.643Q101.27 100.597 102.3 99.5737Q103.33 98.5503 104.383 97.5502Q105.435 96.55 106.51 95.5736Q107.585 94.5972 108.681 93.6451Q109.777 92.6929 110.894 91.7654Q112.011 90.838 113.148 89.9357Q114.286 89.0334 115.443 88.1567Q116.601 87.28 117.777 86.4293Q118.954 85.5787 120.149 84.7545Q121.345 83.9304 122.558 83.1331Q123.771 82.3358 125.002 81.5658Q126.233 80.7957 127.481 80.0534Q128.729 79.3111 129.993 78.5967Q131.257 77.8824 132.536 77.1965Q133.816 76.5106 135.111 75.8534Q136.405 75.1962 137.714 74.568Q139.023 73.9399 140.346 73.3411Q141.669 72.7424 143.004 72.1733Q144.34 71.6042 145.688 71.065Q147.036 70.5258 148.396 70.0169Q149.756 69.508 151.126 69.0295Q152.497 68.5511 153.878 68.1033Q155.259 67.6556 156.65 67.2388Q158.041 66.822 159.441 66.4363Q160.84 66.0506 162.248 65.6963Q163.656 65.342 165.072 65.0192Q166.487 64.6964 167.91 64.4052Q169.332 64.1141 170.761 63.8547Q172.189 63.5954 173.623 63.368C180.449 62.2576 187.101 62.1318 193.966 61.5628ZM78.5684 205.153C77.1476 207.725 82.3434 229.55 83.3676 233.093C87.0571 245.855 95.7591 262.66 104.736 272.368C109.546 268.414 115.274 266.025 120.558 262.832C123.725 261.16 126.925 259.526 130.04 257.759C126.066 251.059 121.246 214.353 121.073 205.042C106.935 205.2 92.7035 205.311 78.5684 205.153ZM103.516 123.586C89.1416 142.477 79.4209 164.149 78.8923 188.219C86.4981 189.788 96.2074 189.005 104.077 188.988C109.718 188.973 115.42 188.801 121.054 189.02C121.879 183.103 121.775 177.289 122.397 171.39C123.641 159.573 125.79 148.205 128.418 136.63C122.345 133.885 116.253 130.874 110.401 127.686C108.077 126.42 105.863 124.741 103.516 123.586ZM152.677 204.873C147.45 204.933 142.184 205.116 136.96 205.005C138.097 216.525 139.312 227.871 141.574 239.244C142.423 243.513 143.278 248.162 145.027 252.167C149.699 249.286 160.98 247.152 166.744 246.102C170.956 245.16 175.392 244.689 179.69 244.291C181.957 244.081 185.039 244.285 187.133 243.565C188.847 240.464 187.864 210.99 187.98 204.842Q170.328 204.76 152.677 204.873ZM144.399 141.664C139.666 156.426 137.356 172.77 137.03 188.245C140.26 188.415 143.554 188.808 146.783 188.758C150.428 188.701 154.06 188.19 157.71 188.123C165.093 187.987 172.49 188.06 179.874 188.05L188.046 188.019C187.772 175.364 187.777 162.613 187.933 149.955C176.802 148.671 153.662 147.168 144.399 141.664ZM204.189 77.6068C203.663 87.9492 204.047 98.4664 204.042 108.826C204.039 116.559 203.37 125.331 204.519 132.945L204.847 132.782L204.601 133.245C206.178 134.31 219.207 131.965 221.966 131.43C227.381 130.381 232.944 129.176 238.23 127.581C240.385 126.883 242.489 126.174 244.565 125.258C236.816 109.411 226.815 94.0863 212.911 82.9311C210.685 81.1453 207.906 78.8408 205.221 77.9193C204.878 77.8017 204.539 77.7025 204.189 77.6068ZM187.378 77.7857C182.886 79.9842 178.925 83.6498 175.4 87.1506C164.068 98.4055 154.725 111.953 149.131 126.971C151.461 127.545 153.772 128.254 156.115 128.759Q165.322 131.307 174.805 132.459C179.177 133.005 183.621 133.198 187.947 134.05C187.902 128.584 188.472 79.2761 187.571 77.9705C187.52 77.8972 187.442 77.8473 187.378 77.7857ZM182.722 259.978C172.362 260.592 158.933 262.961 149.554 267.631C154.974 279.579 161.732 291.083 170.416 300.965Q172.245 303.257 174.277 305.371Q176.309 307.485 178.527 309.403Q180.745 311.321 183.13 313.027Q185.515 314.733 188.047 316.212C187.868 297.464 187.57 278.593 188.009 259.851C186.254 259.887 184.473 259.86 182.722 259.978ZM134.077 273.931C127.3 277.414 121.132 281.263 114.806 285.496C122.42 292.549 131.777 299.072 141.135 303.561C145.566 305.764 150.203 307.474 154.627 309.655C146.382 299.242 140.985 288.892 135.949 276.649C135.521 275.609 135.287 274.19 134.077 273.931ZM152.847 86.2152C142.941 89.391 121.271 102.749 114.405 110.263C116.696 112.115 119.026 113.776 121.6 115.225C125.532 117.24 129.745 119.056 133.479 121.403C137.628 113.479 140.785 105.283 145.702 97.73C146.881 95.9182 153.032 87.4452 153.063 86.4031L152.847 86.2152ZM239.935 85.9822C242.54 89.7731 245.459 93.3277 248.096 97.0924C252.732 103.712 257.334 111.616 260.406 119.093C263.728 116.571 267.779 114.852 271.311 112.607L278.194 108.15C272.733 102.741 247.06 86.4086 239.935 85.9822Z"/>
	<path fill="#272F4E" d="M525.202 5.02463C533.748 4.72459 542.364 4.99475 550.918 4.97688C562.096 4.95354 573.792 4.1709 584.811 6.24966L584.613 6.33976L585.26 6.08716L585.418 6.40337L585.305 6.66065C582.439 7.67007 580.003 9.50863 577.388 11.022C573.729 13.1385 570.036 15.186 566.402 17.3445C548.735 27.8361 535.539 37.6472 520.202 51.2239C515.36 55.5102 510.543 59.6862 506.135 64.4414C497.341 73.9296 489.517 84.3236 481.574 94.5139C475.149 96.7225 464.189 98.027 457.132 99.3626L421.771 106.397C414.475 107.857 407.096 109.086 399.866 110.832C403.687 111.216 407.217 110.607 411.007 110.261L421.483 109.405L474.309 104.766C468.919 113.869 463.333 122.877 458.443 132.266C456.556 135.889 454.702 139.581 452.992 143.292C451.664 146.174 450.494 150.382 448.486 152.781C444.47 157.581 382.122 175.684 370.002 181.18C374.259 180.975 378.451 179.512 382.613 178.629C389.363 177.198 440.719 165.408 443.113 166.197C443.069 167.317 442.697 168.34 442.336 169.392C440.001 176.198 437.206 182.865 434.792 189.649C430.706 201.13 426.18 213.948 418.644 223.65C408.715 236.432 391.418 242.981 376.167 246.452C370.777 247.678 365.263 248.599 359.787 249.357C356.95 249.749 353.903 249.863 351.127 250.498C350.033 250.749 348.98 251.304 347.974 251.791C351.371 252.243 355.015 252.013 358.443 252.025C368.479 252.062 378.182 251.792 388.143 250.448C390.828 250.086 405.712 246.692 406.809 247.155L406.774 247.673C402.883 251.578 399.698 256.217 396.074 260.373C389.613 267.781 382.075 274.631 374.195 280.491Q371.82 282.257 369.368 283.917Q366.917 285.576 364.394 287.124Q361.872 288.673 359.283 290.108Q356.694 291.543 354.044 292.861Q351.393 294.18 348.687 295.379Q345.981 296.579 343.224 297.656Q340.467 298.734 337.666 299.689Q334.864 300.643 332.022 301.472C325.529 303.383 318.818 304.928 312.224 306.466C308.4 307.359 304.448 308.042 300.764 309.42C294.365 311.815 287.643 316.132 282.108 320.184C283.044 322.187 283.434 324.554 283.959 326.698C285.86 335.43 288.78 343.978 290.739 352.734C287.168 358.607 281.845 364.018 277.456 369.289C273.413 374.142 269.546 379.138 265.524 384.009C261.339 389.079 257.014 393.995 252.886 399.116C254.533 393.762 255.358 388.053 256.615 382.587C258.523 374.298 260.902 365.853 262.115 357.437C265.344 356.236 269.039 354.988 270.633 351.627Q270.812 351.244 270.954 350.845Q271.095 350.446 271.198 350.035Q271.3 349.624 271.362 349.205Q271.424 348.786 271.445 348.364Q271.467 347.941 271.447 347.518Q271.427 347.095 271.367 346.676Q271.306 346.257 271.206 345.846Q271.105 345.435 270.965 345.035C269.61 341.288 266.913 340.707 263.715 339.267C261.275 339.935 258.797 340.698 257.047 342.648C254.835 345.114 254.96 348.087 255.068 351.169C256.101 352.712 258.373 354.623 258.876 356.33C259.631 358.897 253.028 385.533 252.249 390.739C252.02 392.269 251.981 393.836 251.962 395.381C249.735 390.744 248.549 385.642 247.117 380.719L240.194 357.524C238.847 353.003 237.734 348.218 235.927 343.864C238.517 340.349 240.682 336.48 243.065 332.818C247.194 326.476 251.521 320.162 255.292 313.604C254.434 310.651 253.379 307.799 252.66 304.798C249.889 293.236 248.727 280.87 248.085 269C247.635 260.684 248.128 252.378 248.875 244.102Q249.286 239.135 249.914 234.191Q250.542 229.247 251.385 224.335Q252.228 219.423 253.285 214.553Q254.342 209.682 255.611 204.863Q256.879 200.043 258.358 195.284Q259.836 190.524 261.52 185.834Q263.205 181.144 265.093 176.532Q266.981 171.919 269.069 167.394C273.412 157.759 278.778 147.268 285.874 139.362C286.862 150.484 291.122 161.253 295.774 171.287C296.545 172.951 297.441 175.678 298.75 176.951L298.892 176.397L298.594 176.867L298.445 176.695C298.613 176.53 298.865 176.419 298.948 176.198C299.093 175.813 298.09 172.007 297.948 171.309C294.358 153.679 295.05 134.48 303.268 118.201C316.518 91.9574 339.855 70.2436 364.497 54.7596C368.455 52.2725 373.757 48.3256 378.157 46.9706C378.662 46.8151 378.588 46.7612 379.071 47.0295C379.191 49.0956 377.05 55.1629 376.405 57.6774C374.851 63.7271 372.001 75.7998 372.006 81.7307L372.011 82.1658C374.068 78.4682 375.521 74.2019 377.17 70.2914C380.715 61.8836 385.246 53.8897 391.345 47.0529C394.554 43.4561 398.176 40.0295 402.135 37.2746C407.72 33.389 413.913 30.5369 420.108 27.79C444.59 16.935 471.925 10.5635 498.473 7.40397C504.868 6.64292 511.185 6.28518 517.589 5.78461C520.136 5.58546 522.638 5.16527 525.202 5.02463Z"/>
	<path fill="#FEFEFE" d="M488.855 29.9519L489.06 30.1181C487.329 31.6265 479.816 34.4027 477.223 35.5993Q471.355 38.3342 465.604 41.3053Q446.667 50.8478 429.036 62.6314Q422.26 67.208 415.719 72.1139Q409.177 77.0197 402.886 82.2427Q396.594 87.4657 390.569 92.9931Q384.543 98.5206 378.798 104.339C328.393 156.286 289.979 233.324 272.221 303.207C269.599 313.524 267.981 323.908 265.975 334.34L265.626 334.085C265.154 329.458 266.592 318.658 267.183 313.658Q268.02 306.493 269.158 299.369Q270.297 292.246 271.736 285.177Q273.174 278.108 274.91 271.106Q276.646 264.105 278.677 257.183Q280.707 250.26 283.028 243.43Q285.349 236.6 287.957 229.874Q290.565 223.148 293.454 216.538Q296.344 209.929 299.51 203.447C332.695 136.653 375.746 85.8466 442.23 50.5474C457.201 42.5993 472.777 35.3557 488.855 29.9519Z"/>
</svg>
